:SAMPLES-PER-SECOND 30
:FULLY-SPECIFIED
:DEGREES
48
root  -0.811303 39.8222 13.5205 -174.312 0.357086 179.671
RightUpLeg  -12.7848 -1.19357 -9.92493
RightLeg  11.55 6.33846 -0.591304
RightFoot  -1.9361 -0.801965 9.56679
RightToes  -1.33073e-015 0 -3.6325e-017
Spine  14.2407 1.41551 3.63943
Spine1  10.7111 1.35096 1.9732
HEad  9.20709 -8.56737 2.79197
LeftShoulder1  7.00653 -16.3172 -29.277
LeftArm  11.6 -24.6951 -66.3287
LeftForeArm  17.7485 -4.71014 -12.6515
LeftHand  -0.246645 0.021 5.37786
RightShoulder  9.53619 17.2324 39.8219
RightArm  18.5032 23.4138 42.3565
RightForeArm  -34.12 24.8643 6.82097
RightHand  -0.24729 -0.0210522 -5.37781
LeftUpLeg  -12.6756 12.9841 8.52376
LeftLeg  11.3437 -1.30106 -2.75755
LeftFoot  -1.26827 0.713547 -8.00289
LeftToes  5.09284e-011 3.02203e-011 3.83118e-011
49
root  -0.993474 39.8419 13.5377 -174.141 1.57549 179.748
RightUpLeg  -13.641 -0.132203 -10.3254
RightLeg  12.0052 6.76173 -0.30326
RightFoot  -1.39247 -0.8765 9.93843
RightToes  -1.33073e-015 0 -3.6325e-017
Spine  14.3616 1.578 3.62044
Spine1  10.816 1.64596 1.58929
HEad  9.05222 -7.8622 2.38556
LeftShoulder1  7.02137 -16.3638 -29.268
LeftArm  11.3204 -22.6598 -65.6055
LeftForeArm  13.6793 -6.58783 -12.3082
LeftHand  -0.246645 0.021 5.37786
RightShoulder  9.48917 17.1847 39.7073
RightArm  18.8139 22.9577 43.2921
RightForeArm  -34.7611 24.5148 6.76004
RightHand  -0.24729 -0.0210522 -5.37781
LeftUpLeg  -12.6067 12.9896 8.42974
LeftLeg  11.4005 -0.107949 -2.67563
LeftFoot  -1.41489 0.69748 -7.92655
LeftToes  5.09284e-011 3.02203e-011 3.83118e-011
50
root  -1.0712 39.8586 13.5283 -174.144 2.38998 179.827
RightUpLeg  -13.8208 0.260317 -10.4218
RightLeg  11.8247 7.15848 -0.302317
RightFoot  -1.22215 -0.903986 10.0915
RightToes  -1.33073e-015 0 -3.6325e-017
Spine  14.2936 1.6639 3.53515
Spine1  11.1965 1.79652 1.34744
HEad  9.06905 -7.23876 2.0509
LeftShoulder1  7.00177 -16.3523 -29.1882
LeftArm  11.7163 -21.1695 -65.284
LeftForeArm  8.63748 -8.39227 -12.005
LeftHand  -0.246645 0.021 5.37786
RightShoulder  9.47229 17.1618 39.6783
RightArm  18.846 22.5067 44.0469
RightForeArm  -34.644 24.4211 6.73419
RightHand  -0.24729 -0.0210522 -5.37781
LeftUpLeg  -12.3322 12.8754 8.52979
LeftLeg  11.3213 0.758781 -2.64624
LeftFoot  -1.52947 0.688077 -7.90217
LeftToes  5.09284e-011 3.02203e-011 3.83118e-011
51
root  -1.03967 39.8629 13.4881 -174.248 2.75153 179.777
RightUpLeg  -13.3468 -0.360214 -10.2845
RightLeg  10.9714 7.82375 -0.558036
RightFoot  -1.26927 -0.892252 10.0024
RightToes  -1.33073e-015 0 -3.6325e-017
Spine  14.0846 1.69664 3.27543
Spine1  11.5492 1.82528 1.22959
HEad  9.41615 -6.85707 1.81348
LeftShoulder1  6.97882 -16.2655 -29.2289
LeftArm  12.2058 -20.8073 -65.1506
LeftForeArm  6.44111 -9.03916 -11.9394
LeftHand  -0.246645 0.021 5.37786
RightShoulder  9.51005 17.1881 39.7961
RightArm  18.414 21.9481 44.5417
RightForeArm  -34.0987 24.6163 6.76196
RightHand  -0.24729 -0.0210522 -5.37781
LeftUpLeg  -11.95 12.6162 8.66785
LeftLeg  11.1327 1.37817 -2.63958
LeftFoot  -1.5762 0.688208 -7.93831
LeftToes  5.09284e-011 3.02203e-011 3.83118e-011
52
root  -0.918635 39.8583 13.4383 -174.284 2.50983 179.638
RightUpLeg  -12.5869 -1.72598 -9.96854
RightLeg  9.84071 8.61643 -0.929415
RightFoot  -1.39647 -0.849024 9.62638
RightToes  -1.33073e-015 0 -3.6325e-017
Spine  13.6915 1.58615 3.13267
Spine1  11.8247 1.70119 1.12162
HEad  9.77153 -6.70948 1.69023
LeftShoulder1  6.95954 -16.1711 -29.3029
LeftArm  11.9684 -21.834 -65.1166
LeftForeArm  9.81854 -7.75231 -12.2461
LeftHand  -0.246645 0.021 5.37786
RightShoulder  9.53245 17.2129 39.8462
RightArm  17.5269 21.4985 45.0637
RightForeArm  -32.2401 25.2962 6.85889
RightHand  -0.24729 -0.0210522 -5.37781
LeftUpLeg  -11.7372 12.3414 8.73561
LeftLeg  10.8345 1.43119 -2.62837
LeftFoot  -1.4413 0.710905 -8.09982
LeftToes  5.09284e-011 3.02203e-011 3.83118e-011
53
root  -0.724207 39.8574 13.4045 -174.218 1.83078 179.547
RightUpLeg  -11.9427 -3.07284 -9.48288
RightLeg  8.96669 9.09062 -1.26577
RightFoot  -1.62309 -0.776656 8.98632
RightToes  -1.33073e-015 0 -3.6325e-017
Spine  13.1244 1.3677 3.38783
Spine1  12.2202 1.53048 0.903293
HEad  9.79608 -6.71594 1.71983
LeftShoulder1  6.95017 -16.1532 -29.2874
LeftArm  10.9966 -24.1135 -65.267
LeftForeArm  16.8943 -4.71976 -12.6353
LeftHand  -0.246645 0.021 5.37786
RightShoulder  9.53036 17.2121 39.8383
RightArm  16.8986 21.6692 45.7543
RightForeArm  -28.1926 26.1132 6.9056
RightHand  -0.24729 -0.0210522 -5.37781
LeftUpLeg  -11.7481 12.2495 8.8184
LeftLeg  10.4412 0.795867 -2.58024
LeftFoot  -1.13531 0.751982 -8.33547
LeftToes  5.09284e-011 3.02203e-011 3.83118e-011
54
root  -0.470646 39.8629 13.4023 -174.171 1.22331 179.577
RightUpLeg  -11.6582 -3.8357 -8.87875
RightLeg  8.69957 9.12707 -1.43974
RightFoot  -1.90391 -0.701101 8.32187
RightToes  -1.33073e-015 0 -3.6325e-017
Spine  12.6678 1.23128 4.00854
Spine1  12.6807 1.53892 0.531858
HEad  9.56858 -6.79838 1.86205
LeftShoulder1  6.96091 -16.2174 -29.2247
LeftArm  10.3843 -27.0563 -65.6038
LeftForeArm  22.7678 -1.11523 -12.6979
LeftHand  -0.246645 0.021 5.37786
RightShoulder  9.55829 17.2235 39.9422
RightArm  17.211 22.6627 46.4494
RightForeArm  -23.6034 26.1884 6.74294
RightHand  -0.24729 -0.0210522 -5.37781
LeftUpLeg  -11.8018 12.3474 9.03688
LeftLeg  10.066 0.0265559 -2.39895
LeftFoot  -0.791455 0.794554 -8.54503
LeftToes  5.09284e-011 3.02203e-011 3.83118e-011
55
root  -0.192032 39.8616 13.4314 -174.189 0.890793 179.746
RightUpLeg  -11.735 -4.06018 -8.23146
RightLeg  8.99934 8.93632 -1.40877
RightFoot  -2.11663 -0.652887 7.9017
RightToes  -1.33073e-015 0 -3.6325e-017
Spine  12.5645 1.24871 4.86663
Spine1  12.9463 1.76852 0.114674
HEad  9.33852 -6.93576 1.98378
LeftShoulder1  6.96587 -16.2831 -29.1297
LeftArm  10.7406 -30.0017 -66.0603
LeftForeArm  25.7216 1.8954 -12.5201
LeftHand  -0.246645 0.021 5.37786
RightShoulder  9.58061 17.254 39.9797
RightArm  18.2236 24.0552 47.0436
RightForeArm  -21.5385 25.3025 6.44614
RightHand  -0.24729 -0.0210522 -5.37781
LeftUpLeg  -11.8699 12.4612 9.43287
LeftLeg  9.89127 -0.405863 -2.08564
LeftFoot  -0.515126 0.837719 -8.79682
LeftToes  5.09284e-011 3.02203e-011 3.83118e-011
56
root  0.0750586 39.8506 13.4741 -174.2 0.353943 -179.969
RightUpLeg  -11.8663 -4.21014 -7.5824
RightLeg  9.42939 8.54013 -1.26616
RightFoot  -2.24264 -0.628287 7.69199
RightToes  -1.33073e-015 0 -3.6325e-017
Spine  12.6398 1.24902 5.84706
Spine1  13.0282 1.94891 -0.138562
HEad  9.1795 -7.2052 2.03783
LeftShoulder1  6.91375 -16.2765 -28.8721
LeftArm  11.4856 -32.7258 -66.7142
LeftForeArm  28.3958 4.07569 -12.3578
LeftHand  -0.246645 0.021 5.37786
RightShoulder  9.50013 17.2527 39.6129
RightArm  19.1028 25.2628 47.5806
RightForeArm  -22.5047 24.2733 6.24892
RightHand  -0.24729 -0.0210522 -5.37781
LeftUpLeg  -12.0694 12.4565 9.94916
LeftLeg  9.81971 -0.8755 -1.83024
LeftFoot  -0.249473 0.893615 -9.17468
LeftToes  5.09284e-011 3.02203e-011 3.83118e-011
57
root  0.316557 39.8434 13.51 -174.214 -0.928925 -179.638
RightUpLeg  -11.6829 -4.6639 -6.96937
RightLeg  9.61032 7.75572 -1.13599
RightFoot  -2.38286 -0.602354 7.47042
RightToes  -1.33073e-015 0 -3.6325e-017
Spine  12.6317 1.0522 6.78383
Spine1  13.1142 1.80162 -0.0702306
HEad  9.04756 -7.6855 2.15284
LeftShoulder1  6.80259 -16.2102 -28.4156
LeftArm  12.4881 -35.3415 -67.7207
LeftForeArm  32.695 5.80074 -12.1292
LeftHand  -0.246645 0.021 5.37786
RightShoulder  9.34911 17.2053 39.0174
RightArm  19.3103 26.1052 47.9769
RightForeArm  -23.9533 23.7548 6.21285
RightHand  -0.24729 -0.0210522 -5.37781
LeftUpLeg  -12.4177 12.3048 10.4636
LeftLeg  9.65072 -1.96163 -1.77829
LeftFoot  0.00340301 0.931955 -9.3705
LeftToes  5.09284e-011 3.02203e-011 3.83118e-011
58
root  0.527875 39.8513 13.5354 -174.324 -2.79993 -179.317
RightUpLeg  -11.1075 -5.29043 -6.45255
RightLeg  9.47694 6.53812 -1.05058
RightFoot  -2.51605 -0.573741 7.20265
RightToes  -1.33073e-015 0 -3.6325e-017
Spine  12.6302 0.697572 7.55358
Spine1  13.1608 1.37179 0.303891
HEad  8.92929 -8.31382 2.44792
LeftShoulder1  6.69072 -16.1564 -27.9286
LeftArm  13.366 -37.8286 -68.903
LeftForeArm  38.7767 7.1632 -11.6887
LeftHand  -0.246645 0.021 5.37786
RightShoulder  9.26708 17.163 38.7263
RightArm  18.9081 26.7789 48.1101
RightForeArm  -24.0774 23.4828 6.21739
RightHand  -0.24729 -0.0210522 -5.37781
LeftUpLeg  -12.8059 12.023 10.8849
LeftLeg  9.44027 -3.50422 -1.85476
LeftFoot  0.0884184 0.891064 -8.89691
LeftToes  5.09284e-011 3.02203e-011 3.83118e-011
59
root  0.694175 39.8661 13.5576 -174.492 -4.59027 -179.074
RightUpLeg  -10.4836 -5.73906 -6.11078
RightLeg  9.2859 5.19991 -0.982225
RightFoot  -2.58121 -0.556437 7.02537
RightToes  -1.33073e-015 0 -3.6325e-017
Spine  12.785 0.391529 8.07539
Spine1  13.0455 0.943238 0.807504
HEad  8.82713 -8.9377 2.84971
LeftShoulder1  6.61505 -16.1614 -27.5232
LeftArm  13.8901 -39.9345 -69.8262
LeftForeArm  45.8253 7.37458 -11.1706
LeftHand  -0.246645 0.021 5.37786
RightShoulder  9.28652 17.1619 38.8186
RightArm  17.952 27.4809 48.1566
RightForeArm  -23.4475 23.0465 6.2243
RightHand  -0.24729 -0.0210522 -5.37781
LeftUpLeg  -13.1608 11.6877 11.1424
LeftLeg  9.32604 -4.87165 -1.91801
LeftFoot  0.0142266 0.789438 -7.93411
LeftToes  5.09284e-011 3.02203e-011 3.83118e-011
60
root  0.78586 39.8685 13.5749 -174.561 -5.90642 -178.901
RightUpLeg  -10.1614 -5.93325 -5.91243
RightLeg  9.27314 4.10472 -0.951827
RightFoot  -2.64993 -0.549275 6.98087
RightToes  -1.33073e-015 0 -3.6325e-017
Spine  12.9175 0.255819 8.48032
Spine1  12.8654 0.681542 1.33356
HEad  8.75978 -9.49679 3.18073
LeftShoulder1  6.56666 -16.21 -27.1834
LeftArm  14.0924 -41.4711 -70.2301
LeftForeArm  52.2871 7.0668 -10.6131
LeftHand  -0.246645 0.021 5.37786
RightShoulder  9.31187 17.1839 38.8899
RightArm  16.6058 28.2179 48.4046
RightForeArm  -22.9724 22.6195 6.27391
RightHand  -0.24729 -0.0210522 -5.37781
LeftUpLeg  -13.5338 11.4583 11.2647
LeftLeg  9.31656 -5.84765 -1.96723
LeftFoot  0.0425794 0.739404 -7.41593
LeftToes  5.09284e-011 3.02203e-011 3.83118e-011
61
root  0.78544 39.853 13.5748 -174.486 -6.81778 -178.774
RightUpLeg  -10.1282 -5.99505 -5.82283
RightLeg  9.43049 3.29761 -0.996674
RightFoot  -2.81424 -0.542029 7.00515
RightToes  -1.33073e-015 0 -3.6325e-017
Spine  12.8403 0.237796 8.91315
Spine1  12.6955 0.536264 1.85122
HEad  8.79833 -10.0699 3.34719
LeftShoulder1  6.55461 -16.2638 -27.0258
LeftArm  13.6563 -42.4792 -70.1465
LeftForeArm  57.1212 6.79867 -9.85031
LeftHand  -0.246645 0.021 5.37786
RightShoulder  9.31132 17.215 38.8221
RightArm  15.5725 28.861 48.8327
RightForeArm  -22.8282 22.4947 6.28991
RightHand  -0.24729 -0.0210522 -5.37781
LeftUpLeg  -13.9339 11.4165 11.2902
LeftLeg  9.33032 -6.60846 -2.064
LeftFoot  0.347915 0.804355 -7.86822
LeftToes  5.09284e-011 3.02203e-011 3.83118e-011
